Normalized EMG Linear Envelopes
nRows=32
nColumns=17

endheader
time	        VM	        VL	        RF	       GRA	        TA	   ADDLONG	   SEMIMEM	      BFLH	        GM	        GL	       TFL	   GLUTMAX	   GLUTMED	      PIRI	    OBTINT	        QF	
1.875	  0.273879	  0.152313	  0.017453	  0.997761	  0.391029	  0.254475	  0.998263	  0.755605	  0.340288	  0.120250	  0.023853	  0.435665	  0.338184	  0.381413	  0.903776	  0.617580	
1.8755	  0.278061	  0.155904	  0.017844	  0.998518	  0.390429	  0.255795	  0.997581	  0.753320	  0.342818	  0.120922	  0.024276	  0.440278	  0.338464	  0.383038	  0.906221	  0.623211	
1.876	  0.282276	  0.159551	  0.018249	  0.999121	  0.389769	  0.257096	  0.996782	  0.750987	  0.345321	  0.121589	  0.024706	  0.444923	  0.338755	  0.384650	  0.908625	  0.628829	
1.8765	  0.286525	  0.163254	  0.018668	  0.999569	  0.389048	  0.258377	  0.995866	  0.748608	  0.347796	  0.122252	  0.025142	  0.449602	  0.339056	  0.386250	  0.910990	  0.634432	
1.877	  0.290807	  0.167013	  0.019102	  0.999862	  0.388267	  0.259637	  0.994830	  0.746185	  0.350241	  0.122910	  0.025584	  0.454313	  0.339367	  0.387839	  0.913317	  0.640020	
1.8775	  0.295123	  0.170830	  0.019550	  1.000000	  0.387425	  0.260876	  0.993674	  0.743721	  0.352656	  0.123566	  0.026033	  0.459056	  0.339689	  0.389418	  0.915608	  0.645592	
1.878	  0.299474	  0.174703	  0.020014	  0.999982	  0.386523	  0.262093	  0.992394	  0.741218	  0.355040	  0.124219	  0.026488	  0.463831	  0.340020	  0.390986	  0.917864	  0.651147	
1.8785	  0.303860	  0.178635	  0.020493	  0.999809	  0.385561	  0.263288	  0.990990	  0.738678	  0.357394	  0.124871	  0.026950	  0.468637	  0.340361	  0.392544	  0.920087	  0.656682	
1.879	  0.308280	  0.182624	  0.020988	  0.999480	  0.384540	  0.264460	  0.989459	  0.736103	  0.359716	  0.125524	  0.027418	  0.473473	  0.340712	  0.394093	  0.922278	  0.662198	
1.8795	  0.312737	  0.186672	  0.021498	  0.998995	  0.383461	  0.265609	  0.987799	  0.733496	  0.362007	  0.126177	  0.027893	  0.478339	  0.341073	  0.395634	  0.924440	  0.667692	
1.88	  0.317230	  0.190779	  0.022025	  0.998354	  0.382324	  0.266732	  0.986009	  0.730858	  0.364266	  0.126831	  0.028374	  0.483233	  0.341443	  0.397167	  0.926575	  0.673164	
1.8805	  0.321761	  0.194944	  0.022568	  0.997556	  0.381131	  0.267831	  0.984087	  0.728192	  0.366493	  0.127489	  0.028862	  0.488155	  0.341823	  0.398692	  0.928684	  0.678612	
1.881	  0.326330	  0.199168	  0.023128	  0.996601	  0.379882	  0.268903	  0.982033	  0.725499	  0.368689	  0.128152	  0.029356	  0.493104	  0.342213	  0.400210	  0.930768	  0.684036	
1.8815	  0.330939	  0.203452	  0.023705	  0.995489	  0.378577	  0.269949	  0.979846	  0.722782	  0.370854	  0.128819	  0.029857	  0.498079	  0.342613	  0.401722	  0.932830	  0.689433	
1.882	  0.335587	  0.207794	  0.024299	  0.994219	  0.377218	  0.270967	  0.977526	  0.720042	  0.372989	  0.129493	  0.030364	  0.503079	  0.343023	  0.403229	  0.934870	  0.694803	
1.8825	  0.340275	  0.212195	  0.024910	  0.992791	  0.375805	  0.271957	  0.975074	  0.717282	  0.375094	  0.130175	  0.030878	  0.508102	  0.343441	  0.404731	  0.936889	  0.700144	
1.883	  0.345005	  0.216656	  0.025540	  0.991205	  0.374338	  0.272918	  0.972490	  0.714503	  0.377171	  0.130865	  0.031398	  0.513147	  0.343869	  0.406228	  0.938888	  0.705456	
1.8835	  0.349777	  0.221175	  0.026187	  0.989461	  0.372820	  0.273849	  0.969774	  0.711707	  0.379220	  0.131565	  0.031924	  0.518213	  0.344306	  0.407721	  0.940869	  0.710737	
1.884	  0.354590	  0.225753	  0.026852	  0.987560	  0.371251	  0.274750	  0.966927	  0.708896	  0.381241	  0.132276	  0.032457	  0.523298	  0.344751	  0.409212	  0.942832	  0.715985	
1.8845	  0.359446	  0.230390	  0.027536	  0.985502	  0.369631	  0.275620	  0.963948	  0.706071	  0.383236	  0.132999	  0.032996	  0.528401	  0.345205	  0.410700	  0.944778	  0.721199	
1.885	  0.364346	  0.235084	  0.028239	  0.983289	  0.367963	  0.276458	  0.960839	  0.703234	  0.385205	  0.133734	  0.033541	  0.533519	  0.345668	  0.412186	  0.946707	  0.726378	
1.8855	  0.369289	  0.239837	  0.028961	  0.980921	  0.366247	  0.277263	  0.957601	  0.700385	  0.387149	  0.134484	  0.034092	  0.538651	  0.346139	  0.413670	  0.948619	  0.731520	
1.886	  0.374276	  0.244647	  0.029703	  0.978398	  0.364484	  0.278033	  0.954235	  0.697528	  0.389068	  0.135249	  0.034650	  0.543796	  0.346619	  0.415154	  0.950515	  0.736624	
1.8865	  0.379307	  0.249514	  0.030464	  0.975722	  0.362676	  0.278769	  0.950742	  0.694662	  0.390965	  0.136030	  0.035213	  0.548950	  0.347109	  0.416637	  0.952394	  0.741688	
1.887	  0.384384	  0.254437	  0.031245	  0.972892	  0.360823	  0.279470	  0.947124	  0.691789	  0.392838	  0.136828	  0.035783	  0.554112	  0.347609	  0.418122	  0.954255	  0.746712	
1.8875	  0.389506	  0.259416	  0.032046	  0.969910	  0.358927	  0.280133	  0.943382	  0.688911	  0.394690	  0.137645	  0.036358	  0.559280	  0.348119	  0.419607	  0.956097	  0.751693	
1.888	  0.394673	  0.264450	  0.032868	  0.966777	  0.356989	  0.280760	  0.939516	  0.686029	  0.396521	  0.138482	  0.036939	  0.564453	  0.348641	  0.421094	  0.957920	  0.756633	
1.8885	  0.399886	  0.269539	  0.033710	  0.963493	  0.355010	  0.281349	  0.935528	  0.683142	  0.398332	  0.139340	  0.037526	  0.569628	  0.349174	  0.422584	  0.959722	  0.761530	
1.889	  0.405144	  0.274681	  0.034574	  0.960061	  0.352992	  0.281899	  0.931418	  0.680253	  0.400123	  0.140219	  0.038118	  0.574806	  0.349720	  0.424077	  0.961502	  0.766386	
1.8895	  0.410447	  0.279876	  0.035459	  0.956482	  0.350935	  0.282410	  0.927188	  0.677362	  0.401896	  0.141122	  0.038716	  0.579984	  0.350278	  0.425572	  0.963259	  0.771199	
1.89	  0.415796	  0.285123	  0.036365	  0.952758	  0.348842	  0.282881	  0.922838	  0.674470	  0.403650	  0.142048	  0.039320	  0.585161	  0.350849	  0.427072	  0.964991	  0.775971	
1.8905	  0.421189	  0.290420	  0.037293	  0.948892	  0.346714	  0.283313	  0.918370	  0.671577	  0.405387	  0.143000	  0.039928	  0.590337	  0.351432	  0.428575	  0.966697	  0.780701	
